<svg xmlns="http://www.w3.org/2000/svg" viewBox="0 0 1024 1024"><g transform="rotate(0 512 512)"><path fill-rule="evenodd" fill="#ffffff" d="M 486 168 C 416 166 306 168 326 168 C 226 168 168 226 168 326 L 168 354 C 168 454 226 486 326 486 L 354 486 C 416 486 458 458 472 472 C 458 458 486 416 486 354 L 486 168 Z M 396.99 352.90 L 396.95 351.79 L 396.88 350.69 L 396.78 349.59 L 396.66 348.49 L 396.51 347.40 L 396.34 346.31 L 396.14 345.22 L 395.91 344.14 L 395.65 343.07 L 395.37 342.00 L 395.06 340.94 L 394.73 339.88 L 394.37 338.84 L 393.98 337.80 L 393.57 336.78 L 393.14 335.76 L 392.68 334.76 L 392.20 333.77 L 391.69 332.79 L 391.15 331.82 L 390.60 330.87 L 390.02 329.93 L 389.42 329.00 L 388.79 328.09 L 388.14 327.19 L 387.48 326.31 L 386.79 325.45 L 386.07 324.61 L 385.34 323.78 L 384.59 322.97 L 383.82 322.18 L 383.03 321.41 L 382.22 320.66 L 381.39 319.93 L 380.55 319.21 L 379.69 318.52 L 378.81 317.86 L 377.91 317.21 L 377.00 316.58 L 376.07 315.98 L 375.13 315.40 L 374.18 314.85 L 373.21 314.31 L 372.23 313.80 L 371.24 313.32 L 370.24 312.86 L 369.22 312.43 L 368.20 312.02 L 367.16 311.63 L 366.12 311.27 L 365.06 310.94 L 364.00 310.63 L 362.93 310.35 L 361.86 310.09 L 360.78 309.86 L 359.69 309.66 L 358.60 309.49 L 357.51 309.34 L 356.41 309.22 L 355.31 309.12 L 354.21 309.05 L 353.10 309.01 L 352.00 309.00 L 350.90 309.01 L 349.79 309.05 L 348.69 309.12 L 347.59 309.22 L 346.49 309.34 L 345.40 309.49 L 344.31 309.66 L 343.22 309.86 L 342.14 310.09 L 341.07 310.35 L 340.00 310.63 L 338.94 310.94 L 337.88 311.27 L 336.84 311.63 L 335.80 312.02 L 334.78 312.43 L 333.76 312.86 L 332.76 313.32 L 331.77 313.80 L 330.79 314.31 L 329.82 314.85 L 328.87 315.40 L 327.93 315.98 L 327.00 316.58 L 326.09 317.21 L 325.19 317.86 L 324.31 318.52 L 323.45 319.21 L 322.61 319.93 L 321.78 320.66 L 320.97 321.41 L 320.18 322.18 L 319.41 322.97 L 318.66 323.78 L 317.93 324.61 L 317.21 325.45 L 316.52 326.31 L 315.86 327.19 L 315.21 328.09 L 314.58 329.00 L 313.98 329.93 L 313.40 330.87 L 312.85 331.82 L 312.31 332.79 L 311.80 333.77 L 311.32 334.76 L 310.86 335.76 L 310.43 336.78 L 310.02 337.80 L 309.63 338.84 L 309.27 339.88 L 308.94 340.94 L 308.63 342.00 L 308.35 343.07 L 308.09 344.14 L 307.86 345.22 L 307.66 346.31 L 307.49 347.40 L 307.34 348.49 L 307.22 349.59 L 307.12 350.69 L 307.05 351.79 L 307.01 352.90 L 307.00 354.00 L 307.01 355.10 L 307.05 356.21 L 307.12 357.31 L 307.22 358.41 L 307.34 359.51 L 307.49 360.60 L 307.66 361.69 L 307.86 362.78 L 308.09 363.86 L 308.35 364.93 L 308.63 366.00 L 308.94 367.06 L 309.27 368.12 L 309.63 369.16 L 310.02 370.20 L 310.43 371.22 L 310.86 372.24 L 311.32 373.24 L 311.80 374.23 L 312.31 375.21 L 312.85 376.18 L 313.40 377.13 L 313.98 378.07 L 314.58 379.00 L 315.21 379.91 L 315.86 380.81 L 316.52 381.69 L 317.21 382.55 L 317.93 383.39 L 318.66 384.22 L 319.41 385.03 L 320.18 385.82 L 320.97 386.59 L 321.78 387.34 L 322.61 388.07 L 323.45 388.79 L 324.31 389.48 L 325.19 390.14 L 326.09 390.79 L 327.00 391.42 L 327.93 392.02 L 328.87 392.60 L 329.82 393.15 L 330.79 393.69 L 331.77 394.20 L 332.76 394.68 L 333.76 395.14 L 334.78 395.57 L 335.80 395.98 L 336.84 396.37 L 337.88 396.73 L 338.94 397.06 L 340.00 397.37 L 341.07 397.65 L 342.14 397.91 L 343.22 398.14 L 344.31 398.34 L 345.40 398.51 L 346.49 398.66 L 347.59 398.78 L 348.69 398.88 L 349.79 398.95 L 350.90 398.99 L 352.00 399.00 L 353.10 398.99 L 354.21 398.95 L 355.31 398.88 L 356.41 398.78 L 357.51 398.66 L 358.60 398.51 L 359.69 398.34 L 360.78 398.14 L 361.86 397.91 L 362.93 397.65 L 364.00 397.37 L 365.06 397.06 L 366.12 396.73 L 367.16 396.37 L 368.20 395.98 L 369.22 395.57 L 370.24 395.14 L 371.24 394.68 L 372.23 394.20 L 373.21 393.69 L 373.61 393.47 L 457.18 475.63 L 457.20 475.67 L 457.34 475.99 L 457.49 476.29 L 457.65 476.60 L 457.82 476.90 L 457.99 477.20 L 458.17 477.49 L 458.36 477.78 L 458.55 478.06 L 458.76 478.34 L 458.96 478.61 L 459.18 478.88 L 459.40 479.14 L 459.63 479.40 L 459.86 479.65 L 460.10 479.90 L 460.35 480.14 L 460.60 480.37 L 460.86 480.60 L 461.12 480.82 L 461.39 481.04 L 461.66 481.24 L 461.94 481.45 L 462.22 481.64 L 462.51 481.83 L 462.80 482.01 L 463.10 482.18 L 463.40 482.35 L 463.71 482.51 L 464.01 482.66 L 464.33 482.80 L 464.64 482.93 L 464.96 483.06 L 465.28 483.18 L 465.61 483.29 L 465.94 483.40 L 466.27 483.49 L 466.60 483.58 L 466.93 483.66 L 467.27 483.73 L 467.61 483.79 L 467.95 483.85 L 468.29 483.89 L 468.63 483.93 L 468.97 483.96 L 469.31 483.98 L 469.66 484.00 L 470.00 484.00 L 470.34 484.00 L 470.69 483.98 L 471.03 483.96 L 471.37 483.93 L 471.71 483.89 L 472.05 483.85 L 472.39 483.79 L 472.73 483.73 L 473.07 483.66 L 473.40 483.58 L 473.73 483.49 L 474.06 483.40 L 474.39 483.29 L 474.72 483.18 L 475.04 483.06 L 475.36 482.93 L 475.67 482.80 L 475.99 482.66 L 476.29 482.51 L 476.60 482.35 L 476.90 482.18 L 477.20 482.01 L 477.49 481.83 L 477.78 481.64 L 478.06 481.45 L 478.34 481.24 L 478.61 481.04 L 478.88 480.82 L 479.14 480.60 L 479.40 480.37 L 479.65 480.14 L 479.90 479.90 L 480.14 479.65 L 480.37 479.40 L 480.60 479.14 L 480.82 478.88 L 481.04 478.61 L 481.24 478.34 L 481.45 478.06 L 481.64 477.78 L 481.83 477.49 L 482.01 477.20 L 482.18 476.90 L 482.35 476.60 L 482.51 476.29 L 482.66 475.99 L 482.80 475.67 L 482.93 475.36 L 483.06 475.04 L 483.18 474.72 L 483.29 474.39 L 483.40 474.06 L 483.49 473.73 L 483.58 473.40 L 483.66 473.07 L 483.73 472.73 L 483.79 472.39 L 483.85 472.05 L 483.89 471.71 L 483.93 471.37 L 483.96 471.03 L 483.98 470.69 L 484.00 470.34 L 484.00 470.00 L 484.00 469.66 L 483.98 469.31 L 483.96 468.97 L 483.93 468.63 L 483.89 468.29 L 483.85 467.95 L 483.79 467.61 L 483.73 467.27 L 483.66 466.93 L 483.58 466.60 L 483.49 466.27 L 483.40 465.94 L 483.29 465.61 L 483.18 465.28 L 483.06 464.96 L 482.93 464.64 L 482.80 464.33 L 482.66 464.01 L 482.51 463.71 L 482.35 463.40 L 482.18 463.10 L 482.01 462.80 L 481.83 462.51 L 481.64 462.22 L 481.45 461.94 L 481.24 461.66 L 481.04 461.39 L 480.82 461.12 L 480.60 460.86 L 480.37 460.60 L 480.14 460.35 L 479.90 460.10 L 479.65 459.86 L 479.40 459.63 L 479.14 459.40 L 478.88 459.18 L 478.61 458.96 L 478.34 458.76 L 478.06 458.55 L 477.78 458.36 L 477.49 458.17 L 477.20 457.99 L 476.90 457.82 L 476.60 457.65 L 476.29 457.49 L 475.99 457.34 L 475.67 457.20 L 475.41 457.09 L 391.83 374.93 L 392.20 374.23 L 392.68 373.24 L 393.14 372.24 L 393.57 371.22 L 393.98 370.20 L 394.37 369.16 L 394.73 368.12 L 395.06 367.06 L 395.37 366.00 L 395.65 364.93 L 395.91 363.86 L 396.14 362.78 L 396.34 361.69 L 396.51 360.60 L 396.66 359.51 L 396.78 358.41 L 396.88 357.31 L 396.95 356.21 L 396.99 355.10 L 397.00 354.00 L 396.99 352.90 Z"/></g><g transform="rotate(90 512 512)"><path fill-rule="evenodd" fill="#ffffff" d="M 486 168 C 416 166 306 168 326 168 C 226 168 168 226 168 326 L 168 354 C 168 454 226 486 326 486 L 354 486 C 416 486 458 458 472 472 C 458 458 486 416 486 354 L 486 168 Z M 396.99 352.90 L 396.95 351.79 L 396.88 350.69 L 396.78 349.59 L 396.66 348.49 L 396.51 347.40 L 396.34 346.31 L 396.14 345.22 L 395.91 344.14 L 395.65 343.07 L 395.37 342.00 L 395.06 340.94 L 394.73 339.88 L 394.37 338.84 L 393.98 337.80 L 393.57 336.78 L 393.14 335.76 L 392.68 334.76 L 392.20 333.77 L 391.69 332.79 L 391.15 331.82 L 390.60 330.87 L 390.02 329.93 L 389.42 329.00 L 388.79 328.09 L 388.14 327.19 L 387.48 326.31 L 386.79 325.45 L 386.07 324.61 L 385.34 323.78 L 384.59 322.97 L 383.82 322.18 L 383.03 321.41 L 382.22 320.66 L 381.39 319.93 L 380.55 319.21 L 379.69 318.52 L 378.81 317.86 L 377.91 317.21 L 377.00 316.58 L 376.07 315.98 L 375.13 315.40 L 374.18 314.85 L 373.21 314.31 L 372.23 313.80 L 371.24 313.32 L 370.24 312.86 L 369.22 312.43 L 368.20 312.02 L 367.16 311.63 L 366.12 311.27 L 365.06 310.94 L 364.00 310.63 L 362.93 310.35 L 361.86 310.09 L 360.78 309.86 L 359.69 309.66 L 358.60 309.49 L 357.51 309.34 L 356.41 309.22 L 355.31 309.12 L 354.21 309.05 L 353.10 309.01 L 352.00 309.00 L 350.90 309.01 L 349.79 309.05 L 348.69 309.12 L 347.59 309.22 L 346.49 309.34 L 345.40 309.49 L 344.31 309.66 L 343.22 309.86 L 342.14 310.09 L 341.07 310.35 L 340.00 310.63 L 338.94 310.94 L 337.88 311.27 L 336.84 311.63 L 335.80 312.02 L 334.78 312.43 L 333.76 312.86 L 332.76 313.32 L 331.77 313.80 L 330.79 314.31 L 329.82 314.85 L 328.87 315.40 L 327.93 315.98 L 327.00 316.58 L 326.09 317.21 L 325.19 317.86 L 324.31 318.52 L 323.45 319.21 L 322.61 319.93 L 321.78 320.66 L 320.97 321.41 L 320.18 322.18 L 319.41 322.97 L 318.66 323.78 L 317.93 324.61 L 317.21 325.45 L 316.52 326.31 L 315.86 327.19 L 315.21 328.09 L 314.58 329.00 L 313.98 329.93 L 313.40 330.87 L 312.85 331.82 L 312.31 332.79 L 311.80 333.77 L 311.32 334.76 L 310.86 335.76 L 310.43 336.78 L 310.02 337.80 L 309.63 338.84 L 309.27 339.88 L 308.94 340.94 L 308.63 342.00 L 308.35 343.07 L 308.09 344.14 L 307.86 345.22 L 307.66 346.31 L 307.49 347.40 L 307.34 348.49 L 307.22 349.59 L 307.12 350.69 L 307.05 351.79 L 307.01 352.90 L 307.00 354.00 L 307.01 355.10 L 307.05 356.21 L 307.12 357.31 L 307.22 358.41 L 307.34 359.51 L 307.49 360.60 L 307.66 361.69 L 307.86 362.78 L 308.09 363.86 L 308.35 364.93 L 308.63 366.00 L 308.94 367.06 L 309.27 368.12 L 309.63 369.16 L 310.02 370.20 L 310.43 371.22 L 310.86 372.24 L 311.32 373.24 L 311.80 374.23 L 312.31 375.21 L 312.85 376.18 L 313.40 377.13 L 313.98 378.07 L 314.58 379.00 L 315.21 379.91 L 315.86 380.81 L 316.52 381.69 L 317.21 382.55 L 317.93 383.39 L 318.66 384.22 L 319.41 385.03 L 320.18 385.82 L 320.97 386.59 L 321.78 387.34 L 322.61 388.07 L 323.45 388.79 L 324.31 389.48 L 325.19 390.14 L 326.09 390.79 L 327.00 391.42 L 327.93 392.02 L 328.87 392.60 L 329.82 393.15 L 330.79 393.69 L 331.77 394.20 L 332.76 394.68 L 333.76 395.14 L 334.78 395.57 L 335.80 395.98 L 336.84 396.37 L 337.88 396.73 L 338.94 397.06 L 340.00 397.37 L 341.07 397.65 L 342.14 397.91 L 343.22 398.14 L 344.31 398.34 L 345.40 398.51 L 346.49 398.66 L 347.59 398.78 L 348.69 398.88 L 349.79 398.95 L 350.90 398.99 L 352.00 399.00 L 353.10 398.99 L 354.21 398.95 L 355.31 398.88 L 356.41 398.78 L 357.51 398.66 L 358.60 398.51 L 359.69 398.34 L 360.78 398.14 L 361.86 397.91 L 362.93 397.65 L 364.00 397.37 L 365.06 397.06 L 366.12 396.73 L 367.16 396.37 L 368.20 395.98 L 369.22 395.57 L 370.24 395.14 L 371.24 394.68 L 372.23 394.20 L 373.21 393.69 L 373.61 393.47 L 457.18 475.63 L 457.20 475.67 L 457.34 475.99 L 457.49 476.29 L 457.65 476.60 L 457.82 476.90 L 457.99 477.20 L 458.17 477.49 L 458.36 477.78 L 458.55 478.06 L 458.76 478.34 L 458.96 478.61 L 459.18 478.88 L 459.40 479.14 L 459.63 479.40 L 459.86 479.65 L 460.10 479.90 L 460.35 480.14 L 460.60 480.37 L 460.86 480.60 L 461.12 480.82 L 461.39 481.04 L 461.66 481.24 L 461.94 481.45 L 462.22 481.64 L 462.51 481.83 L 462.80 482.01 L 463.10 482.18 L 463.40 482.35 L 463.71 482.51 L 464.01 482.66 L 464.33 482.80 L 464.64 482.93 L 464.96 483.06 L 465.28 483.18 L 465.61 483.29 L 465.94 483.40 L 466.27 483.49 L 466.60 483.58 L 466.93 483.66 L 467.27 483.73 L 467.61 483.79 L 467.95 483.85 L 468.29 483.89 L 468.63 483.93 L 468.97 483.96 L 469.31 483.98 L 469.66 484.00 L 470.00 484.00 L 470.34 484.00 L 470.69 483.98 L 471.03 483.96 L 471.37 483.93 L 471.71 483.89 L 472.05 483.85 L 472.39 483.79 L 472.73 483.73 L 473.07 483.66 L 473.40 483.58 L 473.73 483.49 L 474.06 483.40 L 474.39 483.29 L 474.72 483.18 L 475.04 483.06 L 475.36 482.93 L 475.67 482.80 L 475.99 482.66 L 476.29 482.51 L 476.60 482.35 L 476.90 482.18 L 477.20 482.01 L 477.49 481.83 L 477.78 481.64 L 478.06 481.45 L 478.34 481.24 L 478.61 481.04 L 478.88 480.82 L 479.14 480.60 L 479.40 480.37 L 479.65 480.14 L 479.90 479.90 L 480.14 479.65 L 480.37 479.40 L 480.60 479.14 L 480.82 478.88 L 481.04 478.61 L 481.24 478.34 L 481.45 478.06 L 481.64 477.78 L 481.83 477.49 L 482.01 477.20 L 482.18 476.90 L 482.35 476.60 L 482.51 476.29 L 482.66 475.99 L 482.80 475.67 L 482.93 475.36 L 483.06 475.04 L 483.18 474.72 L 483.29 474.39 L 483.40 474.06 L 483.49 473.73 L 483.58 473.40 L 483.66 473.07 L 483.73 472.73 L 483.79 472.39 L 483.85 472.05 L 483.89 471.71 L 483.93 471.37 L 483.96 471.03 L 483.98 470.69 L 484.00 470.34 L 484.00 470.00 L 484.00 469.66 L 483.98 469.31 L 483.96 468.97 L 483.93 468.63 L 483.89 468.29 L 483.85 467.95 L 483.79 467.61 L 483.73 467.27 L 483.66 466.93 L 483.58 466.60 L 483.49 466.27 L 483.40 465.94 L 483.29 465.61 L 483.18 465.28 L 483.06 464.96 L 482.93 464.64 L 482.80 464.33 L 482.66 464.01 L 482.51 463.71 L 482.35 463.40 L 482.18 463.10 L 482.01 462.80 L 481.83 462.51 L 481.64 462.22 L 481.45 461.94 L 481.24 461.66 L 481.04 461.39 L 480.82 461.12 L 480.60 460.86 L 480.37 460.60 L 480.14 460.35 L 479.90 460.10 L 479.65 459.86 L 479.40 459.63 L 479.14 459.40 L 478.88 459.18 L 478.61 458.96 L 478.34 458.76 L 478.06 458.55 L 477.78 458.36 L 477.49 458.17 L 477.20 457.99 L 476.90 457.82 L 476.60 457.65 L 476.29 457.49 L 475.99 457.34 L 475.67 457.20 L 475.41 457.09 L 391.83 374.93 L 392.20 374.23 L 392.68 373.24 L 393.14 372.24 L 393.57 371.22 L 393.98 370.20 L 394.37 369.16 L 394.73 368.12 L 395.06 367.06 L 395.37 366.00 L 395.65 364.93 L 395.91 363.86 L 396.14 362.78 L 396.34 361.69 L 396.51 360.60 L 396.66 359.51 L 396.78 358.41 L 396.88 357.31 L 396.95 356.21 L 396.99 355.10 L 397.00 354.00 L 396.99 352.90 Z"/></g><g transform="rotate(180 512 512)"><path fill-rule="evenodd" fill="#ffffff" d="M 486 168 C 416 166 306 168 326 168 C 226 168 168 226 168 326 L 168 354 C 168 454 226 486 326 486 L 354 486 C 416 486 458 458 472 472 C 458 458 486 416 486 354 L 486 168 Z M 396.99 352.90 L 396.95 351.79 L 396.88 350.69 L 396.78 349.59 L 396.66 348.49 L 396.51 347.40 L 396.34 346.31 L 396.14 345.22 L 395.91 344.14 L 395.65 343.07 L 395.37 342.00 L 395.06 340.94 L 394.73 339.88 L 394.37 338.84 L 393.98 337.80 L 393.57 336.78 L 393.14 335.76 L 392.68 334.76 L 392.20 333.77 L 391.69 332.79 L 391.15 331.82 L 390.60 330.87 L 390.02 329.93 L 389.42 329.00 L 388.79 328.09 L 388.14 327.19 L 387.48 326.31 L 386.79 325.45 L 386.07 324.61 L 385.34 323.78 L 384.59 322.97 L 383.82 322.18 L 383.03 321.41 L 382.22 320.66 L 381.39 319.93 L 380.55 319.21 L 379.69 318.52 L 378.81 317.86 L 377.91 317.21 L 377.00 316.58 L 376.07 315.98 L 375.13 315.40 L 374.18 314.85 L 373.21 314.31 L 372.23 313.80 L 371.24 313.32 L 370.24 312.86 L 369.22 312.43 L 368.20 312.02 L 367.16 311.63 L 366.12 311.27 L 365.06 310.94 L 364.00 310.63 L 362.93 310.35 L 361.86 310.09 L 360.78 309.86 L 359.69 309.66 L 358.60 309.49 L 357.51 309.34 L 356.41 309.22 L 355.31 309.12 L 354.21 309.05 L 353.10 309.01 L 352.00 309.00 L 350.90 309.01 L 349.79 309.05 L 348.69 309.12 L 347.59 309.22 L 346.49 309.34 L 345.40 309.49 L 344.31 309.66 L 343.22 309.86 L 342.14 310.09 L 341.07 310.35 L 340.00 310.63 L 338.94 310.94 L 337.88 311.27 L 336.84 311.63 L 335.80 312.02 L 334.78 312.43 L 333.76 312.86 L 332.76 313.32 L 331.77 313.80 L 330.79 314.31 L 329.82 314.85 L 328.87 315.40 L 327.93 315.98 L 327.00 316.58 L 326.09 317.21 L 325.19 317.86 L 324.31 318.52 L 323.45 319.21 L 322.61 319.93 L 321.78 320.66 L 320.97 321.41 L 320.18 322.18 L 319.41 322.97 L 318.66 323.78 L 317.93 324.61 L 317.21 325.45 L 316.52 326.31 L 315.86 327.19 L 315.21 328.09 L 314.58 329.00 L 313.98 329.93 L 313.40 330.87 L 312.85 331.82 L 312.31 332.79 L 311.80 333.77 L 311.32 334.76 L 310.86 335.76 L 310.43 336.78 L 310.02 337.80 L 309.63 338.84 L 309.27 339.88 L 308.94 340.94 L 308.63 342.00 L 308.35 343.07 L 308.09 344.14 L 307.86 345.22 L 307.66 346.31 L 307.49 347.40 L 307.34 348.49 L 307.22 349.59 L 307.12 350.69 L 307.05 351.79 L 307.01 352.90 L 307.00 354.00 L 307.01 355.10 L 307.05 356.21 L 307.12 357.31 L 307.22 358.41 L 307.34 359.51 L 307.49 360.60 L 307.66 361.69 L 307.86 362.78 L 308.09 363.86 L 308.35 364.93 L 308.63 366.00 L 308.94 367.06 L 309.27 368.12 L 309.63 369.16 L 310.02 370.20 L 310.43 371.22 L 310.86 372.24 L 311.32 373.24 L 311.80 374.23 L 312.31 375.21 L 312.85 376.18 L 313.40 377.13 L 313.98 378.07 L 314.58 379.00 L 315.21 379.91 L 315.86 380.81 L 316.52 381.69 L 317.21 382.55 L 317.93 383.39 L 318.66 384.22 L 319.41 385.03 L 320.18 385.82 L 320.97 386.59 L 321.78 387.34 L 322.61 388.07 L 323.45 388.79 L 324.31 389.48 L 325.19 390.14 L 326.09 390.79 L 327.00 391.42 L 327.93 392.02 L 328.87 392.60 L 329.82 393.15 L 330.79 393.69 L 331.77 394.20 L 332.76 394.68 L 333.76 395.14 L 334.78 395.57 L 335.80 395.98 L 336.84 396.37 L 337.88 396.73 L 338.94 397.06 L 340.00 397.37 L 341.07 397.65 L 342.14 397.91 L 343.22 398.14 L 344.31 398.34 L 345.40 398.51 L 346.49 398.66 L 347.59 398.78 L 348.69 398.88 L 349.79 398.95 L 350.90 398.99 L 352.00 399.00 L 353.10 398.99 L 354.21 398.95 L 355.31 398.88 L 356.41 398.78 L 357.51 398.66 L 358.60 398.51 L 359.69 398.34 L 360.78 398.14 L 361.86 397.91 L 362.93 397.65 L 364.00 397.37 L 365.06 397.06 L 366.12 396.73 L 367.16 396.37 L 368.20 395.98 L 369.22 395.57 L 370.24 395.14 L 371.24 394.68 L 372.23 394.20 L 373.21 393.69 L 373.61 393.47 L 457.18 475.63 L 457.20 475.67 L 457.34 475.99 L 457.49 476.29 L 457.65 476.60 L 457.82 476.90 L 457.99 477.20 L 458.17 477.49 L 458.36 477.78 L 458.55 478.06 L 458.76 478.34 L 458.96 478.61 L 459.18 478.88 L 459.40 479.14 L 459.63 479.40 L 459.86 479.65 L 460.10 479.90 L 460.35 480.14 L 460.60 480.37 L 460.86 480.60 L 461.12 480.82 L 461.39 481.04 L 461.66 481.24 L 461.94 481.45 L 462.22 481.64 L 462.51 481.83 L 462.80 482.01 L 463.10 482.18 L 463.40 482.35 L 463.71 482.51 L 464.01 482.66 L 464.33 482.80 L 464.64 482.93 L 464.96 483.06 L 465.28 483.18 L 465.61 483.29 L 465.94 483.40 L 466.27 483.49 L 466.60 483.58 L 466.93 483.66 L 467.27 483.73 L 467.61 483.79 L 467.95 483.85 L 468.29 483.89 L 468.63 483.93 L 468.97 483.96 L 469.31 483.98 L 469.66 484.00 L 470.00 484.00 L 470.34 484.00 L 470.69 483.98 L 471.03 483.96 L 471.37 483.93 L 471.71 483.89 L 472.05 483.85 L 472.39 483.79 L 472.73 483.73 L 473.07 483.66 L 473.40 483.58 L 473.73 483.49 L 474.06 483.40 L 474.39 483.29 L 474.72 483.18 L 475.04 483.06 L 475.36 482.93 L 475.67 482.80 L 475.99 482.66 L 476.29 482.51 L 476.60 482.35 L 476.90 482.18 L 477.20 482.01 L 477.49 481.83 L 477.78 481.64 L 478.06 481.45 L 478.34 481.24 L 478.61 481.04 L 478.88 480.82 L 479.14 480.60 L 479.40 480.37 L 479.65 480.14 L 479.90 479.90 L 480.14 479.65 L 480.37 479.40 L 480.60 479.14 L 480.82 478.88 L 481.04 478.61 L 481.24 478.34 L 481.45 478.06 L 481.64 477.78 L 481.83 477.49 L 482.01 477.20 L 482.18 476.90 L 482.35 476.60 L 482.51 476.29 L 482.66 475.99 L 482.80 475.67 L 482.93 475.36 L 483.06 475.04 L 483.18 474.72 L 483.29 474.39 L 483.40 474.06 L 483.49 473.73 L 483.58 473.40 L 483.66 473.07 L 483.73 472.73 L 483.79 472.39 L 483.85 472.05 L 483.89 471.71 L 483.93 471.37 L 483.96 471.03 L 483.98 470.69 L 484.00 470.34 L 484.00 470.00 L 484.00 469.66 L 483.98 469.31 L 483.96 468.97 L 483.93 468.63 L 483.89 468.29 L 483.85 467.95 L 483.79 467.61 L 483.73 467.27 L 483.66 466.93 L 483.58 466.60 L 483.49 466.27 L 483.40 465.94 L 483.29 465.61 L 483.18 465.28 L 483.06 464.96 L 482.93 464.64 L 482.80 464.33 L 482.66 464.01 L 482.51 463.71 L 482.35 463.40 L 482.18 463.10 L 482.01 462.80 L 481.83 462.51 L 481.64 462.22 L 481.45 461.94 L 481.24 461.66 L 481.04 461.39 L 480.82 461.12 L 480.60 460.86 L 480.37 460.60 L 480.14 460.35 L 479.90 460.10 L 479.65 459.86 L 479.40 459.63 L 479.14 459.40 L 478.88 459.18 L 478.61 458.96 L 478.34 458.76 L 478.06 458.55 L 477.78 458.36 L 477.49 458.17 L 477.20 457.99 L 476.90 457.82 L 476.60 457.65 L 476.29 457.49 L 475.99 457.34 L 475.67 457.20 L 475.41 457.09 L 391.83 374.93 L 392.20 374.23 L 392.68 373.24 L 393.14 372.24 L 393.57 371.22 L 393.98 370.20 L 394.37 369.16 L 394.73 368.12 L 395.06 367.06 L 395.37 366.00 L 395.65 364.93 L 395.91 363.86 L 396.14 362.78 L 396.34 361.69 L 396.51 360.60 L 396.66 359.51 L 396.78 358.41 L 396.88 357.31 L 396.95 356.21 L 396.99 355.10 L 397.00 354.00 L 396.99 352.90 Z"/></g><g transform="rotate(270 512 512)"><path fill-rule="evenodd" fill="#ffffff" d="M 486 168 C 416 166 306 168 326 168 C 226 168 168 226 168 326 L 168 354 C 168 454 226 486 326 486 L 354 486 C 416 486 458 458 472 472 C 458 458 486 416 486 354 L 486 168 Z M 396.99 352.90 L 396.95 351.79 L 396.88 350.69 L 396.78 349.59 L 396.66 348.49 L 396.51 347.40 L 396.34 346.31 L 396.14 345.22 L 395.91 344.14 L 395.65 343.07 L 395.37 342.00 L 395.06 340.94 L 394.73 339.88 L 394.37 338.84 L 393.98 337.80 L 393.57 336.78 L 393.14 335.76 L 392.68 334.76 L 392.20 333.77 L 391.69 332.79 L 391.15 331.82 L 390.60 330.87 L 390.02 329.93 L 389.42 329.00 L 388.79 328.09 L 388.14 327.19 L 387.48 326.31 L 386.79 325.45 L 386.07 324.61 L 385.34 323.78 L 384.59 322.97 L 383.82 322.18 L 383.03 321.41 L 382.22 320.66 L 381.39 319.93 L 380.55 319.21 L 379.69 318.52 L 378.81 317.86 L 377.91 317.21 L 377.00 316.58 L 376.07 315.98 L 375.13 315.40 L 374.18 314.85 L 373.21 314.31 L 372.23 313.80 L 371.24 313.32 L 370.24 312.86 L 369.22 312.43 L 368.20 312.02 L 367.16 311.63 L 366.12 311.27 L 365.06 310.94 L 364.00 310.63 L 362.93 310.35 L 361.86 310.09 L 360.78 309.86 L 359.69 309.66 L 358.60 309.49 L 357.51 309.34 L 356.41 309.22 L 355.31 309.12 L 354.21 309.05 L 353.10 309.01 L 352.00 309.00 L 350.90 309.01 L 349.79 309.05 L 348.69 309.12 L 347.59 309.22 L 346.49 309.34 L 345.40 309.49 L 344.31 309.66 L 343.22 309.86 L 342.14 310.09 L 341.07 310.35 L 340.00 310.63 L 338.94 310.94 L 337.88 311.27 L 336.84 311.63 L 335.80 312.02 L 334.78 312.43 L 333.76 312.86 L 332.76 313.32 L 331.77 313.80 L 330.79 314.31 L 329.82 314.85 L 328.87 315.40 L 327.93 315.98 L 327.00 316.58 L 326.09 317.21 L 325.19 317.86 L 324.31 318.52 L 323.45 319.21 L 322.61 319.93 L 321.78 320.66 L 320.97 321.41 L 320.18 322.18 L 319.41 322.97 L 318.66 323.78 L 317.93 324.61 L 317.21 325.45 L 316.52 326.31 L 315.86 327.19 L 315.21 328.09 L 314.58 329.00 L 313.98 329.93 L 313.40 330.87 L 312.85 331.82 L 312.31 332.79 L 311.80 333.77 L 311.32 334.76 L 310.86 335.76 L 310.43 336.78 L 310.02 337.80 L 309.63 338.84 L 309.27 339.88 L 308.94 340.94 L 308.63 342.00 L 308.35 343.07 L 308.09 344.14 L 307.86 345.22 L 307.66 346.31 L 307.49 347.40 L 307.34 348.49 L 307.22 349.59 L 307.12 350.69 L 307.05 351.79 L 307.01 352.90 L 307.00 354.00 L 307.01 355.10 L 307.05 356.21 L 307.12 357.31 L 307.22 358.41 L 307.34 359.51 L 307.49 360.60 L 307.66 361.69 L 307.86 362.78 L 308.09 363.86 L 308.35 364.93 L 308.63 366.00 L 308.94 367.06 L 309.27 368.12 L 309.63 369.16 L 310.02 370.20 L 310.43 371.22 L 310.86 372.24 L 311.32 373.24 L 311.80 374.23 L 312.31 375.21 L 312.85 376.18 L 313.40 377.13 L 313.98 378.07 L 314.58 379.00 L 315.21 379.91 L 315.86 380.81 L 316.52 381.69 L 317.21 382.55 L 317.93 383.39 L 318.66 384.22 L 319.41 385.03 L 320.18 385.82 L 320.97 386.59 L 321.78 387.34 L 322.61 388.07 L 323.45 388.79 L 324.31 389.48 L 325.19 390.14 L 326.09 390.79 L 327.00 391.42 L 327.93 392.02 L 328.87 392.60 L 329.82 393.15 L 330.79 393.69 L 331.77 394.20 L 332.76 394.68 L 333.76 395.14 L 334.78 395.57 L 335.80 395.98 L 336.84 396.37 L 337.88 396.73 L 338.94 397.06 L 340.00 397.37 L 341.07 397.65 L 342.14 397.91 L 343.22 398.14 L 344.31 398.34 L 345.40 398.51 L 346.49 398.66 L 347.59 398.78 L 348.69 398.88 L 349.79 398.95 L 350.90 398.99 L 352.00 399.00 L 353.10 398.99 L 354.21 398.95 L 355.31 398.88 L 356.41 398.78 L 357.51 398.66 L 358.60 398.51 L 359.69 398.34 L 360.78 398.14 L 361.86 397.91 L 362.93 397.65 L 364.00 397.37 L 365.06 397.06 L 366.12 396.73 L 367.16 396.37 L 368.20 395.98 L 369.22 395.57 L 370.24 395.14 L 371.24 394.68 L 372.23 394.20 L 373.21 393.69 L 373.61 393.47 L 457.18 475.63 L 457.20 475.67 L 457.34 475.99 L 457.49 476.29 L 457.65 476.60 L 457.82 476.90 L 457.99 477.20 L 458.17 477.49 L 458.36 477.78 L 458.55 478.06 L 458.76 478.34 L 458.96 478.61 L 459.18 478.88 L 459.40 479.14 L 459.63 479.40 L 459.86 479.65 L 460.10 479.90 L 460.35 480.14 L 460.60 480.37 L 460.86 480.60 L 461.12 480.82 L 461.39 481.04 L 461.66 481.24 L 461.94 481.45 L 462.22 481.64 L 462.51 481.83 L 462.80 482.01 L 463.10 482.18 L 463.40 482.35 L 463.71 482.51 L 464.01 482.66 L 464.33 482.80 L 464.64 482.93 L 464.96 483.06 L 465.28 483.18 L 465.61 483.29 L 465.94 483.40 L 466.27 483.49 L 466.60 483.58 L 466.93 483.66 L 467.27 483.73 L 467.61 483.79 L 467.95 483.85 L 468.29 483.89 L 468.63 483.93 L 468.97 483.96 L 469.31 483.98 L 469.66 484.00 L 470.00 484.00 L 470.34 484.00 L 470.69 483.98 L 471.03 483.96 L 471.37 483.93 L 471.71 483.89 L 472.05 483.85 L 472.39 483.79 L 472.73 483.73 L 473.07 483.66 L 473.40 483.58 L 473.73 483.49 L 474.06 483.40 L 474.39 483.29 L 474.72 483.18 L 475.04 483.06 L 475.36 482.93 L 475.67 482.80 L 475.99 482.66 L 476.29 482.51 L 476.60 482.35 L 476.90 482.18 L 477.20 482.01 L 477.49 481.83 L 477.78 481.64 L 478.06 481.45 L 478.34 481.24 L 478.61 481.04 L 478.88 480.82 L 479.14 480.60 L 479.40 480.37 L 479.65 480.14 L 479.90 479.90 L 480.14 479.65 L 480.37 479.40 L 480.60 479.14 L 480.82 478.88 L 481.04 478.61 L 481.24 478.34 L 481.45 478.06 L 481.64 477.78 L 481.83 477.49 L 482.01 477.20 L 482.18 476.90 L 482.35 476.60 L 482.51 476.29 L 482.66 475.99 L 482.80 475.67 L 482.93 475.36 L 483.06 475.04 L 483.18 474.72 L 483.29 474.39 L 483.40 474.06 L 483.49 473.73 L 483.58 473.40 L 483.66 473.07 L 483.73 472.73 L 483.79 472.39 L 483.85 472.05 L 483.89 471.71 L 483.93 471.37 L 483.96 471.03 L 483.98 470.69 L 484.00 470.34 L 484.00 470.00 L 484.00 469.66 L 483.98 469.31 L 483.96 468.97 L 483.93 468.63 L 483.89 468.29 L 483.85 467.95 L 483.79 467.61 L 483.73 467.27 L 483.66 466.93 L 483.58 466.60 L 483.49 466.27 L 483.40 465.94 L 483.29 465.61 L 483.18 465.28 L 483.06 464.96 L 482.93 464.64 L 482.80 464.33 L 482.66 464.01 L 482.51 463.71 L 482.35 463.40 L 482.18 463.10 L 482.01 462.80 L 481.83 462.51 L 481.64 462.22 L 481.45 461.94 L 481.24 461.66 L 481.04 461.39 L 480.82 461.12 L 480.60 460.86 L 480.37 460.60 L 480.14 460.35 L 479.90 460.10 L 479.65 459.86 L 479.40 459.63 L 479.14 459.40 L 478.88 459.18 L 478.61 458.96 L 478.34 458.76 L 478.06 458.55 L 477.78 458.36 L 477.49 458.17 L 477.20 457.99 L 476.90 457.82 L 476.60 457.65 L 476.29 457.49 L 475.99 457.34 L 475.67 457.20 L 475.41 457.09 L 391.83 374.93 L 392.20 374.23 L 392.68 373.24 L 393.14 372.24 L 393.57 371.22 L 393.98 370.20 L 394.37 369.16 L 394.73 368.12 L 395.06 367.06 L 395.37 366.00 L 395.65 364.93 L 395.91 363.86 L 396.14 362.78 L 396.34 361.69 L 396.51 360.60 L 396.66 359.51 L 396.78 358.41 L 396.88 357.31 L 396.95 356.21 L 396.99 355.10 L 397.00 354.00 L 396.99 352.90 Z"/></g></svg>