<svg xmlns="http://www.w3.org/2000/svg" viewBox="0 0 1024 1024"><g transform="rotate(0 512 512)"><path fill="#ffffff" d="M 486 168 C 416 166 306 168 326 168 C 226 168 168 226 168 326 L 168 354 C 168 454 226 486 326 486 L 354 486 C 416 486 458 458 472 472 C 458 458 486 416 486 354 L 486 168 Z"/></g><g transform="rotate(90 512 512)"><path fill="#ffffff" d="M 486 168 C 416 166 306 168 326 168 C 226 168 168 226 168 326 L 168 354 C 168 454 226 486 326 486 L 354 486 C 416 486 458 458 472 472 C 458 458 486 416 486 354 L 486 168 Z"/></g><g transform="rotate(180 512 512)"><path fill="#ffffff" d="M 486 168 C 416 166 306 168 326 168 C 226 168 168 226 168 326 L 168 354 C 168 454 226 486 326 486 L 354 486 C 416 486 458 458 472 472 C 458 458 486 416 486 354 L 486 168 Z"/></g><g transform="rotate(270 512 512)"><path fill="#ffffff" d="M 486 168 C 416 166 306 168 326 168 C 226 168 168 226 168 326 L 168 354 C 168 454 226 486 326 486 L 354 486 C 416 486 458 458 472 472 C 458 458 486 416 486 354 L 486 168 Z"/></g></svg>