<svg xmlns="http://www.w3.org/2000/svg" viewBox="0 0 3899 1140" fill="none" role="img" aria-label="miabi.io"><g fill="currentColor" transform="matrix(1,0,0,-1,70,1070)"><path transform="translate(922,0)" d="M178 61Q178 35 161 18Q144 0 118 0Q92 0 75 18Q58 35 58 61V474Q58 500 75 518Q92 535 118 535Q144 535 161 518Q178 500 178 474Z"/><path transform="translate(1158,0)" d="M503 545Q529 545 546 528Q563 511 563 484V61Q563 35 546 18Q529 0 503 0Q477 0 460 18Q443 35 443 61V110L465 101Q465 88 451 70Q437 51 413 33Q389 15 356 2Q324 -10 286 -10Q217 -10 161 26Q105 61 72 124Q40 186 40 267Q40 349 72 412Q105 474 160 510Q215 545 282 545Q325 545 361 532Q397 519 424 499Q450 479 464 458Q479 438 479 424L443 411V484Q443 510 460 528Q477 545 503 545ZM301 100Q345 100 378 122Q411 144 430 182Q448 220 448 267Q448 315 430 353Q411 391 378 413Q345 435 301 435Q258 435 225 413Q192 391 174 353Q155 315 155 267Q155 220 174 182Q192 144 225 122Q258 100 301 100Z"/><path transform="translate(1786,0)" d="M342 545Q412 545 468 510Q523 474 556 412Q588 350 588 268Q588 186 556 124Q523 61 468 26Q414 -10 346 -10Q306 -10 271 3Q236 16 210 36Q183 56 168 76Q154 97 154 111L185 124V51Q185 25 168 8Q151 -10 125 -10Q99 -10 82 7Q65 24 65 51V679Q65 705 82 722Q99 740 125 740Q151 740 168 722Q185 705 185 679V425L168 434Q168 447 182 466Q196 484 220 502Q244 521 276 533Q307 545 342 545ZM327 435Q283 435 250 413Q217 391 198 354Q180 316 180 268Q180 221 198 182Q217 144 250 122Q283 100 327 100Q371 100 404 122Q436 144 454 182Q473 221 473 268Q473 316 454 354Q436 391 404 413Q371 435 327 435Z"/><path transform="translate(2414,0)" d="M178 61Q178 35 161 18Q144 0 118 0Q92 0 75 18Q58 35 58 61V474Q58 500 75 518Q92 535 118 535Q144 535 161 518Q178 500 178 474Z"/><path transform="translate(2650,0)" d="M118 1Q89 1 74 16Q58 32 58 61V78Q58 107 74 122Q89 138 118 138H131Q160 138 176 122Q191 107 191 78V61Q191 32 176 16Q160 1 131 1Z"/></g><g fill="#101A37" transform="matrix(1,0,0,-1,70,1070)"><path transform="translate(2899,0)" d="M178 61Q178 35 161 18Q144 0 118 0Q92 0 75 18Q58 35 58 61V474Q58 500 75 518Q92 535 118 535Q144 535 161 518Q178 500 178 474ZM117 600Q83 600 69 611Q55 622 55 650V669Q55 698 70 708Q86 719 118 719Q153 719 167 708Q181 697 181 669V650Q181 621 166 610Q151 600 117 600Z"/><path transform="translate(3135,0)" d="M584 267Q584 185 548 122Q511 60 450 25Q388 -10 312 -10Q236 -10 174 25Q113 60 76 122Q40 185 40 267Q40 349 76 412Q113 474 174 510Q236 545 312 545Q388 545 450 510Q511 474 548 412Q584 349 584 267ZM464 267Q464 318 444 356Q423 393 388 414Q354 435 312 435Q270 435 236 414Q201 393 180 356Q160 318 160 267Q160 217 180 180Q201 142 236 121Q270 100 312 100Q354 100 388 121Q423 142 444 180Q464 217 464 267Z"/></g><path d="M 195 1010 L 195 753 A 168 168 0 0 1 531 753 L 531 1010 M 531 753 A 168 168 0 0 1 867 753 L 867 1010" fill="none" stroke="currentColor" stroke-width="120" stroke-linecap="round" stroke-linejoin="round"/><circle cx="1110" cy="306" r="181" fill="currentColor"/><circle cx="2602" cy="306" r="181" fill="currentColor"/></svg>